# xmcd CD database file
#
# Track frame offsets:
#	150
#	28485
#	58180
#	89128
#	117443
#	153873
#	185658
#	221470
#
# Disc length: 3370 seconds
#
# Revision: 0
# Processed by: cddbd v1.5.1PL0 Copyright (c) Steve Scherf et al.
# Submitted via: CDex 1.51
#
DISCID=770d2808
DTITLE=Grant Stewart - Tenor And Soul
DYEAR=2005
DGENRE=Jazz
TTITLE0=Hush A Bye
TTITLE1=Willow Weep For Me
TTITLE2=Old Devil Moon
TTITLE3=Alacant
TTITLE4=On Green Dolphin Street
TTITLE5=Tijuana Gift Shop
TTITLE6=Quiet Sip
TTITLE7=Dr.Bob's Nightmare
EXTD=YEAR: 2005
EXTT0=
EXTT1=
EXTT2=
EXTT3=
EXTT4=
EXTT5=
EXTT6=
EXTT7=
PLAYORDER=
